<svg width="56" height="38" viewBox="0 0 56 38" fill="none" xmlns="http://www.w3.org/2000/svg">
<path d="M42 13C42 13.5523 42.4477 14 43 14C43.5523 14 44 13.5523 44 13H42ZM44 33C44 32.4477 43.5523 32 43 32C42.4477 32 42 32.4477 42 33H44ZM21 9C21.5523 9 22 8.55228 22 8C22 7.44772 21.5523 7 21 7V9ZM29 7C28.4477 7 28 7.44772 28 8C28 8.55228 28.4477 9 29 9V7ZM24 4C23.4477 4 23 4.44772 23 5C23 5.55228 23.4477 6 24 6V4ZM26 6C26.5523 6 27 5.55228 27 5C27 4.44772 26.5523 4 26 4V6ZM3 28C2.44772 28 2 28.4477 2 29C2 29.5523 2.44772 30 3 30V28ZM31 30C31.5523 30 32 29.5523 32 29C32 28.4477 31.5523 28 31 28V30ZM36.0072 20.9928C35.6166 20.6023 34.9835 20.6023 34.5929 20.9928C34.2024 21.3834 34.2024 22.0165 34.5929 22.4071L36.0072 20.9928ZM39 25.4L38.2929 26.1071L39 26.8142L39.7072 26.1071L39 25.4ZM50.4072 15.4071C50.7977 15.0165 50.7977 14.3834 50.4072 13.9928C50.0166 13.6023 49.3835 13.6023 48.9929 13.9928L50.4072 15.4071ZM13 32C12.4477 32 12 32.4477 12 33C12 33.5523 12.4477 34 13 34V32ZM21 34C21.5523 34 22 33.5523 22 33C22 32.4477 21.5523 32 21 32V34ZM49 4C48.4477 4 48 4.44772 48 5C48 5.55228 48.4477 6 49 6V4ZM51 6C51.5523 6 52 5.55228 52 5C52 4.44772 51.5523 4 51 4V6ZM1 0C0.447715 0 0 0.447715 0 1C0 1.55228 0.447715 2 1 2V0ZM5 2C5.55228 2 6 1.55228 6 1C6 0.447715 5.55228 0 5 0V2ZM53 33C52.4477 33 52 33.4477 52 34C52 34.5523 52.4477 35 53 35V33ZM55 35C55.5523 35 56 34.5523 56 34C56 33.4477 55.5523 33 55 33V35ZM3 18C2.44772 18 2 18.4477 2 19C2 19.5523 2.44772 20 3 20V18ZM12 20C12.5523 20 13 19.5523 13 19C13 18.4477 12.5523 18 12 18V20ZM45 0C44.4477 0 44 0.447715 44 1C44 1.55228 44.4477 2 45 2V0ZM55 2C55.5523 2 56 1.55228 56 1C56 0.447715 55.5523 0 55 0V2ZM10 7C9.66729 7 8.71449 7.05918 7.80961 7.58565C6.82635 8.15773 6 9.23024 6 11H8C8 9.96976 8.42365 9.54227 8.81539 9.31435C9.28551 9.04082 9.83271 9 10 9V7ZM6 11V34H8V11H6ZM6 34C6 34.3327 6.05918 35.2855 6.58565 36.1904C7.15773 37.1736 8.23024 38 10 38V36C8.96976 36 8.54227 35.5764 8.31435 35.1846C8.04082 34.7145 8 34.1673 8 34H6ZM10 38H40V36H10V38ZM40 38C40.3327 38 41.2855 37.9408 42.1904 37.4143C43.1736 36.8423 44 35.7698 44 34H42C42 35.0302 41.5764 35.4577 41.1846 35.6856C40.7145 35.9592 40.1673 36 40 36V38ZM44 11C44 10.6673 43.9408 9.71449 43.4143 8.80961C42.8423 7.82635 41.7698 7 40 7V9C41.0302 9 41.4577 9.42365 41.6856 9.81539C41.9592 10.2855 42 10.8327 42 11H44ZM44 13V11H42V13H44ZM44 34V33H42V34H44ZM21 7H10V9H21V7ZM40 7H29V9H40V7ZM22 0C21.6432 0 21.128 0.0669964 20.6878 0.419131C20.205 0.805354 20 1.37929 20 2H22C22 1.95176 22.0038 1.92047 22.0069 1.90313C22.0099 1.8861 22.0121 1.88338 22.009 1.89087C22.0075 1.89454 22.0048 1.90029 22.0007 1.90758C21.9965 1.9149 21.9912 1.92319 21.9846 1.93203C21.9779 1.94088 21.9705 1.94966 21.9622 1.95811C21.954 1.96656 21.9456 1.97416 21.9372 1.98087C21.9202 1.99446 21.9057 2.00265 21.8966 2.00699C21.8879 2.01117 21.8851 2.01142 21.8905 2.00998C21.896 2.00852 21.9078 2.00589 21.927 2.00369C21.9462 2.0015 21.9705 2 22 2V0ZM20 2V11H22V2H20ZM20 11C20 11.3568 20.067 11.872 20.4191 12.3122C20.8054 12.795 21.3793 13 22 13V11C21.9518 11 21.9205 10.9962 21.9031 10.9931C21.8861 10.9901 21.8834 10.9879 21.8909 10.991C21.8945 10.9925 21.9003 10.9952 21.9076 10.9993C21.9149 11.0035 21.9232 11.0088 21.932 11.0154C21.9409 11.0221 21.9497 11.0295 21.9581 11.0378C21.9666 11.046 21.9742 11.0544 21.9809 11.0628C21.9945 11.0798 22.0026 11.0943 22.007 11.1034C22.0112 11.1121 22.0114 11.1149 22.01 11.1095C22.0085 11.104 22.0059 11.0922 22.0037 11.073C22.0015 11.0538 22 11.0295 22 11H20ZM22 13H28V11H22V13ZM28 13C28.3568 13 28.872 12.933 29.3122 12.5809C29.795 12.1946 30 11.6207 30 11H28C28 11.0482 27.9962 11.0795 27.9931 11.0969C27.9901 11.1139 27.9879 11.1166 27.991 11.1091C27.9925 11.1055 27.9952 11.0997 27.9993 11.0924C28.0035 11.0851 28.0088 11.0768 28.0154 11.068C28.0221 11.0591 28.0295 11.0503 28.0378 11.0419C28.046 11.0334 28.0544 11.0258 28.0628 11.0191C28.0798 11.0055 28.0943 10.9974 28.1034 10.993C28.1121 10.9888 28.1149 10.9886 28.1095 10.99C28.104 10.9915 28.0922 10.9941 28.073 10.9963C28.0538 10.9985 28.0295 11 28 11V13ZM30 11V2H28V11H30ZM30 2C30 1.66044 29.9194 1.17584 29.6 0.75C29.2443 0.275705 28.6855 0 28 0V2C28.0375 2 28.059 2.00351 28.0676 2.00531C28.0758 2.00703 28.0734 2.00741 28.0638 2.00286C28.0593 2.00069 28.0537 1.9977 28.0475 1.99374C28.0414 1.98979 28.0351 1.98523 28.0289 1.98013C28.0164 1.96968 28.0067 1.959 28 1.95C27.9935 1.94129 27.9906 1.93544 27.99 1.93423C27.9895 1.93317 27.9908 1.93577 27.9927 1.94264C27.9946 1.94953 27.9966 1.95872 27.998 1.96971C27.9994 1.98072 28 1.99122 28 2H30ZM28 0H22V2H28V0ZM24 6H26V4H24V6ZM3 30H31V28H3V30ZM21 18.5C21 20.433 19.433 22 17.5 22V24C20.5376 24 23 21.5376 23 18.5H21ZM17.5 22C15.567 22 14 20.433 14 18.5H12C12 21.5376 14.4624 24 17.5 24V22ZM14 18.5C14 16.567 15.567 15 17.5 15V13C14.4624 13 12 15.4624 12 18.5H14ZM17.5 15C19.433 15 21 16.567 21 18.5H23C23 15.4624 20.5376 13 17.5 13V15ZM48 23C48 27.9706 43.9706 32 39 32V34C45.0751 34 50 29.0751 50 23H48ZM39 32C34.0294 32 30 27.9706 30 23H28C28 29.0751 32.9249 34 39 34V32ZM30 23C30 18.0294 34.0294 14 39 14V12C32.9249 12 28 16.9249 28 23H30ZM39 14C43.9706 14 48 18.0294 48 23H50C50 16.9249 45.0751 12 39 12V14ZM13 34H21V32H13V34ZM49 6H51V4H49V6ZM1 2H5V0H1V2ZM53 35H55V33H53V35ZM3 20H12V18H3V20ZM45 2H55V0H45V2ZM34.5929 22.4071L38.2929 26.1071L39.7072 24.6928L36.0072 20.9928L34.5929 22.4071ZM39.7072 26.1071L50.4072 15.4071L48.9929 13.9928L38.2929 24.6928L39.7072 26.1071Z" fill="#CF9B42"/>
</svg>
