<svg width="52" height="36" viewBox="0 0 52 36" fill="none" xmlns="http://www.w3.org/2000/svg">
<path d="M4 26C3.44772 26 3 26.4477 3 27C3 27.5523 3.44772 28 4 28V26ZM5 28C5.55228 28 6 27.5523 6 27C6 26.4477 5.55228 26 5 26V28ZM20 7H19C19 7.55228 19.4477 8 20 8V7ZM32 7V8C32.5523 8 33 7.55228 33 7H32ZM10 16C9.44771 16 9 16.4477 9 17C9 17.5523 9.44771 18 10 18V16ZM23 18C23.5523 18 24 17.5523 24 17C24 16.4477 23.5523 16 23 16V18ZM29 16C28.4477 16 28 16.4477 28 17C28 17.5523 28.4477 18 29 18V16ZM42 18C42.5523 18 43 17.5523 43 17C43 16.4477 42.5523 16 42 16V18ZM14 30C13.4477 30 13 30.4477 13 31C13 31.5523 13.4477 32 14 32V30ZM32 32C32.5523 32 33 31.5523 33 31C33 30.4477 32.5523 30 32 30V32ZM1 22C0.447715 22 0 22.4477 0 23C0 23.5523 0.447715 24 1 24V22ZM15 24C15.5523 24 16 23.5523 16 23C16 22.4477 15.5523 22 15 22V24ZM37 11C36.4477 11 36 11.4477 36 12C36 12.5523 36.4477 13 37 13V11ZM51 13C51.5523 13 52 12.5523 52 12C52 11.4477 51.5523 11 51 11V13ZM37 30C36.4477 30 36 30.4477 36 31C36 31.5523 36.4477 32 37 32V30ZM38 32C38.5523 32 39 31.5523 39 31C39 30.4477 38.5523 30 38 30V32ZM47 14C46.4477 14 46 14.4477 46 15C46 15.5523 46.4477 16 47 16V14ZM48 16C48.5523 16 49 15.5523 49 15C49 14.4477 48.5523 14 48 14V16ZM44 29C43.4477 29 43 29.4477 43 30C43 30.5523 43.4477 31 44 31V29ZM48 31C48.5523 31 49 30.5523 49 30C49 29.4477 48.5523 29 48 29V31ZM7 1C6.44772 1 6 1.44772 6 2C6 2.55228 6.44772 3 7 3V1ZM11 3C11.5523 3 12 2.55228 12 2C12 1.44772 11.5523 1 11 1V3ZM4 28H5V26H4V28ZM12 6C11.6673 6 10.7145 6.05918 9.80961 6.58565C8.82635 7.15773 8 8.23024 8 10H10C10 8.96976 10.4236 8.54227 10.8154 8.31435C11.2855 8.04082 11.8327 8 12 8V6ZM8 10V32H10V10H8ZM8 32C8 32.3327 8.05918 33.2855 8.58565 34.1904C9.15773 35.1736 10.2302 36 12 36V34C10.9698 34 10.5423 33.5764 10.3143 33.1846C10.0408 32.7145 10 32.1673 10 32H8ZM12 36H40V34H12V36ZM40 36C40.3327 36 41.2855 35.9408 42.1904 35.4143C43.1736 34.8423 44 33.7698 44 32H42C42 33.0302 41.5764 33.4577 41.1846 33.6856C40.7145 33.9592 40.1673 34 40 34V36ZM44 32V10H42V32H44ZM44 10C44 9.66729 43.9408 8.71449 43.4143 7.80961C42.8423 6.82635 41.7698 6 40 6V8C41.0302 8 41.4577 8.42365 41.6856 8.81539C41.9592 9.28551 42 9.83271 42 10H44ZM40 6H12V8H40V6ZM22 0C21.6568 0 20.9421 0.06238 20.2803 0.478363C19.5452 0.940455 19 1.76388 19 3H21C21 2.69201 21.0631 2.51141 21.1199 2.40733C21.1763 2.30395 21.2516 2.23012 21.3447 2.17164C21.5579 2.03762 21.8432 2 22 2V0ZM19 3V7H21V3H19ZM20 8H32V6H20V8ZM33 7V3H31V7H33ZM33 3C33 2.65679 32.9376 1.94212 32.5216 1.28033C32.0595 0.545183 31.2361 0 30 0V2C30.308 2 30.4886 2.06307 30.5927 2.11989C30.696 2.17633 30.7699 2.25163 30.8284 2.34467C30.9624 2.55788 31 2.84321 31 3H33ZM30 0H22V2H30V0ZM10 18H23V16H10V18ZM29 18H42V16H29V18ZM25 13C24.6568 13 23.9421 13.0624 23.2803 13.4784C22.5452 13.9405 22 14.7639 22 16H24C24 15.692 24.0631 15.5114 24.1199 15.4073C24.1763 15.304 24.2516 15.2301 24.3447 15.1716C24.5579 15.0376 24.8432 15 25 15V13ZM22 16V21H24V16H22ZM22 21C22 21.3432 22.0624 22.0579 22.4784 22.7197C22.9405 23.4548 23.7639 24 25 24V22C24.692 22 24.5114 21.9369 24.4073 21.8801C24.304 21.8237 24.2301 21.7484 24.1716 21.6553C24.0376 21.4421 24 21.1568 24 21H22ZM25 24H27V22H25V24ZM27 24C27.3432 24 28.0579 23.9376 28.7197 23.5216C29.4548 23.0595 30 22.2361 30 21H28C28 21.308 27.9369 21.4886 27.8801 21.5927C27.8237 21.696 27.7484 21.7699 27.6553 21.8284C27.4421 21.9624 27.1568 22 27 22V24ZM30 21V16H28V21H30ZM30 16C30 15.6568 29.9376 14.9421 29.5216 14.2803C29.0595 13.5452 28.2361 13 27 13V15C27.308 15 27.4886 15.0631 27.5927 15.1199C27.696 15.1763 27.7699 15.2516 27.8284 15.3447C27.9624 15.5579 28 15.8432 28 16H30ZM27 13H25V15H27V13ZM14 32H32V30H14V32ZM1 24H15V22H1V24ZM37 13H51V11H37V13ZM37 32H38V30H37V32ZM47 16H48V14H47V16ZM44 31H48V29H44V31ZM7 3H11V1H7V3Z" fill="#CF9B42"/>
</svg>
