<svg width="40" height="40" viewBox="0 0 40 40" fill="none" xmlns="http://www.w3.org/2000/svg">
<rect width="40" height="40" rx="20" fill="#CF9B42"/>
<path d="M11.0753 19.9193C11.0747 21.4912 11.4873 23.0258 12.2715 24.3784L11 29L15.7511 27.7598C17.0602 28.4705 18.5339 28.845 20.0339 28.8457H20.0377C24.9769 28.8457 28.9979 24.8438 29 19.9262C29.0008 17.5427 28.0693 15.3017 26.3773 13.6158C24.6851 11.93 22.4351 11.001 20.0377 11C15.0975 11 11.0772 15.0011 11.0751 19.919L11.0753 19.9193ZM13.9045 24.1453L13.7271 23.8649C12.9813 22.6845 12.5877 21.3203 12.5883 19.9196C12.5899 15.8322 15.9314 12.5065 20.0403 12.5065C22.0301 12.5073 23.9002 13.2795 25.3068 14.6806C26.7133 16.0819 27.4873 17.9446 27.4867 19.9255C27.4849 24.0132 24.1433 27.3391 20.0375 27.3391H20.0346C18.6977 27.3383 17.3866 26.9811 16.2432 26.3056L15.9711 26.145L13.1516 26.8809L13.9045 24.1453ZM20.0377 28.8457H20.0378H20.0377C20.0376 28.8457 20.0375 28.8457 20.0377 28.8457Z" fill="white"/>
<path fill-rule="evenodd" clip-rule="evenodd" d="M17.7984 16.1897C17.6306 15.8185 17.4541 15.811 17.2945 15.8045C17.1639 15.799 17.0145 15.7993 16.8654 15.7993C16.716 15.7993 16.4734 15.8551 16.2682 16.0782C16.0629 16.3013 15.4844 16.8406 15.4844 17.9374C15.4844 19.0344 16.2869 20.0943 16.3987 20.2431C16.5107 20.3918 17.948 22.7146 20.224 23.6082C22.1157 24.3508 22.5006 24.2031 22.9112 24.1659C23.3218 24.1288 24.2362 23.6268 24.4227 23.1062C24.6094 22.5856 24.6094 22.1395 24.5534 22.0463C24.4974 21.9534 24.3481 21.8976 24.1241 21.7862C23.9001 21.6747 22.7992 21.1353 22.594 21.0609C22.3886 20.9866 22.2393 20.9495 22.09 21.1726C21.9407 21.3956 21.5118 21.8976 21.3811 22.0463C21.2505 22.1953 21.1198 22.2139 20.8959 22.1024C20.6719 21.9905 19.9506 21.7553 19.095 20.9959C18.4293 20.405 17.9799 19.6753 17.8492 19.452C17.7186 19.2291 17.8353 19.1084 17.9475 18.9972C18.0482 18.8973 18.1716 18.7369 18.2836 18.6068C18.3953 18.4766 18.4326 18.3837 18.5072 18.235C18.5819 18.0862 18.5446 17.956 18.4886 17.8445C18.4326 17.733 17.9974 16.6305 17.7983 16.1897" fill="white"/>
</svg>
